<svg width="63" height="55" viewBox="0 0 63 55" fill="none" xmlns="http://www.w3.org/2000/svg">
<circle cx="21.5" cy="33.5" r="21" fill="#FF9900" stroke="#FF9900"/>
<path fill-rule="evenodd" clip-rule="evenodd" d="M40.4051 16.4304C37.2732 16.4304 34.7343 18.9694 34.7343 22.1013C34.7343 25.2333 37.2732 27.7722 40.4051 27.7722C43.5371 27.7722 46.076 25.2333 46.076 22.1013C46.076 18.9694 43.5371 16.4304 40.4051 16.4304ZM34.0254 22.1013C34.0254 18.5779 36.8817 15.7216 40.4051 15.7216C43.9286 15.7216 46.7849 18.5779 46.7849 22.1013C46.7849 25.6247 43.9286 28.4811 40.4051 28.4811C36.8817 28.4811 34.0254 25.6247 34.0254 22.1013Z" fill="black"/>
<path fill-rule="evenodd" clip-rule="evenodd" d="M40.5 0.710526C39.5264 0.710526 38.5926 1.0973 37.9042 1.78575C37.2157 2.47421 36.8289 3.40796 36.8289 4.38158V4.72382L36.8289 4.72523C36.8261 5.44232 36.6136 6.14293 36.2177 6.74081C35.8217 7.33868 35.2596 7.80773 34.6005 8.09022C34.5563 8.10917 34.5086 8.11895 34.4605 8.11895H34.3724C33.7189 8.39124 33 8.46927 32.3023 8.34276C31.5794 8.21168 30.9123 7.86705 30.3871 7.35331L30.3843 7.35057L30.2635 7.22976C29.9226 6.88844 29.5176 6.61753 29.0719 6.43278C28.6263 6.24804 28.1486 6.15295 27.6661 6.15295C27.1837 6.15295 26.706 6.24804 26.2603 6.43278C25.8147 6.61753 25.4098 6.8883 25.0688 7.22962L25.0686 7.2299C24.7272 7.57084 24.4565 7.97572 24.2717 8.42138C24.087 8.86704 23.9919 9.34474 23.9919 9.82717C23.9919 10.3096 24.087 10.7873 24.2717 11.233C24.4565 11.6786 24.7272 12.0835 25.0686 12.4244L25.1923 12.5481C25.706 13.0733 26.0506 13.7404 26.1817 14.4633C26.3121 15.1825 26.2252 15.9242 25.9322 16.5937C25.6767 17.2817 25.2212 17.8776 24.6242 18.3047C24.024 18.7339 23.3087 18.9726 22.5711 18.9899L22.5628 18.99H22.3816C21.408 18.99 20.4742 19.3768 19.7858 20.0652C19.0973 20.7537 18.7105 21.6874 18.7105 22.6611C18.7105 23.6347 19.0973 24.5684 19.7858 25.2569C20.4742 25.9453 21.408 26.3321 22.3816 26.3321H22.7252C23.4423 26.335 24.1429 26.5474 24.7408 26.9434C25.3382 27.339 25.8069 27.9005 26.0895 28.5589C26.3855 29.2305 26.4737 29.9755 26.3428 30.6977C26.2117 31.4206 25.8671 32.0877 25.3533 32.6129L25.3506 32.6157L25.2298 32.7365C24.8884 33.0774 24.6175 33.4824 24.4328 33.9281C24.248 34.3737 24.153 34.8514 24.153 35.3339C24.153 35.8163 24.248 36.294 24.4328 36.7397C24.6175 37.1853 24.8883 37.5902 25.2296 37.9312L25.2299 37.9314C25.5708 38.2728 25.9757 38.5435 26.4214 38.7283C26.867 38.913 27.3447 39.0081 27.8272 39.0081C28.3096 39.0081 28.7873 38.913 29.233 38.7283C29.6786 38.5435 30.0835 38.2728 30.4244 37.9314L30.5481 37.8077C31.0733 37.294 31.7404 36.9494 32.4633 36.8183C33.1826 36.6879 33.9242 36.7748 34.5937 37.0678C35.2817 37.3233 35.8776 37.7788 36.3047 38.3758C36.7339 38.976 36.9726 39.6913 36.9899 40.4289L36.99 40.4372V40.6184C36.99 41.592 37.3768 42.5258 38.0652 43.2142C38.7537 43.9027 39.6874 44.2895 40.6611 44.2895C41.6347 44.2895 42.5684 43.9027 43.2569 43.2142C43.9453 42.5258 44.3321 41.592 44.3321 40.6184V40.2762L44.3321 40.2748C44.335 39.5577 44.5474 38.8571 44.9434 38.2592C45.339 37.6619 45.9004 37.1932 46.5587 36.9106C47.2304 36.6145 47.9754 36.5263 48.6977 36.6572C49.4206 36.7883 50.0877 37.1329 50.6129 37.6467L50.6157 37.6494L50.7365 37.7702C51.0774 38.1116 51.4824 38.3825 51.9281 38.5672C52.3737 38.752 52.8514 38.8471 53.3339 38.8471C53.8163 38.8471 54.294 38.752 54.7397 38.5672C55.1853 38.3825 55.5902 38.1117 55.9312 37.7704L55.9314 37.7701C56.2728 37.4292 56.5435 37.0243 56.7283 36.5786C56.913 36.133 57.0081 35.6553 57.0081 35.1728C57.0081 34.6904 56.913 34.2127 56.7283 33.767C56.5435 33.3214 56.2728 32.9165 55.9314 32.5756L55.8077 32.4519C55.294 31.9267 54.9494 31.2596 54.8183 30.5367C54.6873 29.8143 54.7756 29.0693 55.0716 28.3976C55.3542 27.7393 55.8229 27.1779 56.4202 26.7823C57.0181 26.3864 57.7187 26.1739 58.4358 26.1711L58.4372 26.1711L58.6184 26.1711C59.592 26.1711 60.5258 25.7843 61.2142 25.0958C61.9027 24.4074 62.2895 23.4736 62.2895 22.5C62.2895 21.5264 61.9027 20.5926 61.2142 19.9042C60.5258 19.2157 59.592 18.8289 58.6184 18.8289H58.2762L58.2748 18.8289C57.5577 18.8261 56.8571 18.6136 56.2592 18.2177C55.6613 17.8217 55.1923 17.2596 54.9098 16.6005C54.8908 16.5563 54.8811 16.5086 54.8811 16.4605V16.3724C54.6088 15.7189 54.5307 15 54.6572 14.3023C54.7883 13.5794 55.1329 12.9123 55.6467 12.3871L55.6494 12.3843L55.7702 12.2635C56.1116 11.9226 56.3825 11.5176 56.5672 11.0719C56.752 10.6263 56.847 10.1486 56.847 9.66612C56.847 9.18369 56.752 8.70598 56.5672 8.26033C56.3825 7.81467 56.1117 7.40979 55.7704 7.06885L55.7701 7.06857C55.4292 6.72725 55.0243 6.45647 54.5786 6.27173C54.133 6.08699 53.6553 5.9919 53.1728 5.9919C52.6904 5.9919 52.2127 6.08699 51.767 6.27173C51.3214 6.45648 50.9165 6.72725 50.5756 7.06857L50.4519 7.19227C49.9267 7.70601 49.2596 8.05063 48.5367 8.1817C47.8144 8.31267 47.0695 8.22445 46.3978 7.92843C45.7394 7.64586 45.1779 7.17711 44.7823 6.57975C44.3864 5.98188 44.1739 5.28127 44.1711 4.56418L44.1711 4.56276V4.38158C44.1711 3.40796 43.7843 2.47421 43.0958 1.78575C42.4074 1.0973 41.4736 0.710526 40.5 0.710526ZM37.4018 1.28333C38.2235 0.461629 39.3379 0 40.5 0C41.6621 0 42.7765 0.461629 43.5982 1.28333C44.4199 2.10504 44.8816 3.21951 44.8816 4.38158L44.8816 4.56135C44.8816 4.56157 44.8816 4.56179 44.8816 4.56201C44.884 5.1403 45.0554 5.70528 45.3747 6.18744C45.6942 6.66978 46.1477 7.0482 46.6794 7.2761L46.6829 7.2776C47.2252 7.51692 47.8267 7.58833 48.4099 7.48258C48.9925 7.37694 49.5302 7.09938 49.9537 6.68563C49.9541 6.68519 49.9546 6.68476 49.955 6.68433L50.0729 6.56643C50.0729 6.56638 50.0728 6.56648 50.0729 6.56643C50.4798 6.15911 50.9631 5.83584 51.4949 5.61537C52.0269 5.39487 52.597 5.28137 53.1728 5.28137C53.7486 5.28137 54.3188 5.39487 54.8507 5.61537C55.3825 5.83582 55.8656 6.1589 56.2725 6.56615C56.6799 6.97308 57.0031 7.45632 57.2236 7.98824C57.4441 8.52015 57.5576 9.09031 57.5576 9.66612C57.5576 10.2419 57.4441 10.8121 57.2236 11.344C57.0031 11.8759 56.6799 12.3592 56.2725 12.7661L56.1546 12.884C56.1542 12.8844 56.1537 12.8849 56.1533 12.8853C55.7395 13.3088 55.462 13.8465 55.3564 14.429C55.2506 15.0123 55.322 15.6138 55.5613 16.156C55.5813 16.2012 55.5916 16.2501 55.5916 16.2995V16.3855C55.8219 16.8892 56.1889 17.3189 56.6515 17.6253C57.1337 17.9446 57.6986 18.116 58.2769 18.1184H58.6184C59.7805 18.1184 60.895 18.5801 61.7167 19.4018C62.5384 20.2235 63 21.3379 63 22.5C63 23.6621 62.5384 24.7765 61.7167 25.5982C60.895 26.42 59.7805 26.8816 58.6184 26.8816L58.4387 26.8816C58.4384 26.8816 58.4382 26.8816 58.438 26.8816C57.8597 26.884 57.2947 27.0554 56.8126 27.3747C56.3302 27.6942 55.9518 28.1477 55.7239 28.6794L55.7224 28.6829C55.4831 29.2252 55.4117 29.8267 55.5174 30.4099C55.623 30.9925 55.9006 31.5301 56.3143 31.9536C56.3147 31.954 56.3152 31.9545 56.3157 31.955L56.4336 32.0729C56.4336 32.0729 56.4335 32.0728 56.4336 32.0729C56.8409 32.4798 57.1642 32.9631 57.3846 33.4949C57.6051 34.0269 57.7186 34.597 57.7186 35.1728C57.7186 35.7486 57.6051 36.3188 57.3846 36.8507C57.1642 37.3826 56.841 37.8658 56.4337 38.2727C56.0268 38.68 55.5436 39.0031 55.0118 39.2236C54.4799 39.4441 53.9097 39.5576 53.3339 39.5576C52.7581 39.5576 52.1879 39.4441 51.656 39.2236C51.1241 39.0031 50.641 38.68 50.2341 38.2727C50.234 38.2726 50.2341 38.2727 50.2341 38.2727L50.116 38.1546C50.1156 38.1541 50.1151 38.1537 50.1146 38.1532C49.6911 37.7395 49.1535 37.462 48.571 37.3564C47.9877 37.2506 47.3862 37.322 46.844 37.5613L46.8405 37.5629C46.3087 37.7908 45.8552 38.1692 45.5358 38.6515C45.2165 39.1337 45.0451 39.6987 45.0426 40.2769C45.0426 40.2772 45.0426 40.2774 45.0426 40.2776L45.0426 40.6184C45.0426 41.7805 44.581 42.895 43.7593 43.7167C42.9376 44.5384 41.8231 45 40.6611 45C39.499 45 38.3845 44.5384 37.5628 43.7167C36.7411 42.895 36.2795 41.7805 36.2795 40.6184V40.4415C36.2648 39.8479 36.0722 39.2722 35.7267 38.7892C35.3805 38.305 34.8965 37.9363 34.3379 37.7308C34.3341 37.7294 34.3304 37.728 34.3266 37.7264C34.3234 37.7251 34.3202 37.7238 34.3171 37.7224C33.7748 37.4831 33.1733 37.4117 32.5901 37.5174C32.0075 37.6231 31.4699 37.9006 31.0464 38.3143C31.0459 38.3148 31.0455 38.3152 31.045 38.3157L30.9271 38.4336C30.5202 38.841 30.037 39.1641 29.5051 39.3846C28.9731 39.6051 28.403 39.7186 27.8272 39.7186C27.2514 39.7186 26.6812 39.6051 26.1493 39.3846C25.6174 39.1641 25.1341 38.841 24.7272 38.4336C24.32 38.0267 23.9969 37.5436 23.7764 37.0118C23.5559 36.4799 23.4424 35.9097 23.4424 35.3339C23.4424 34.7581 23.5559 34.1879 23.7764 33.656C23.9969 33.1241 24.32 32.641 24.7273 32.2341C24.7274 32.234 24.7273 32.2341 24.7273 32.2341L24.8454 32.1161C24.8458 32.1156 24.8463 32.1152 24.8467 32.1147C25.2604 31.6912 25.538 31.1536 25.6436 30.571C25.7494 29.9877 25.678 29.3862 25.4387 28.844L25.4371 28.8405C25.2092 28.3087 24.8308 27.8552 24.3485 27.5358C23.8663 27.2165 23.3014 27.0451 22.7231 27.0426C22.7228 27.0426 22.7226 27.0426 22.7224 27.0426L22.3816 27.0426C21.2195 27.0426 20.105 26.581 19.2833 25.7593C18.4616 24.9376 18 23.8231 18 22.6611C18 21.499 18.4616 20.3845 19.2833 19.5628C20.105 18.7411 21.2195 18.2795 22.3816 18.2795H22.5585C23.1522 18.2648 23.7278 18.0722 24.2108 17.7268C24.695 17.3805 25.0637 16.8966 25.2692 16.3379C25.2718 16.3309 25.2746 16.3239 25.2776 16.3171C25.5169 15.7748 25.5883 15.1733 25.4826 14.5901C25.3769 14.0075 25.0994 13.4699 24.6857 13.0464L24.5664 12.9271C24.159 12.5202 23.8359 12.037 23.6154 11.5051C23.3949 10.9731 23.2814 10.403 23.2814 9.82717C23.2814 9.25136 23.3949 8.6812 23.6154 8.14929C23.8359 7.61737 24.159 7.13413 24.5664 6.7272C24.9733 6.31995 25.4564 5.99687 25.9882 5.77642C26.5202 5.55592 27.0903 5.44242 27.6661 5.44242C28.2419 5.44242 28.8121 5.55592 29.344 5.77642C29.8759 5.99689 30.359 6.32003 30.7659 6.72734C30.766 6.72739 30.7659 6.7273 30.7659 6.72734L30.8853 6.84673C31.3088 7.26045 31.8465 7.538 32.429 7.64363C33.0123 7.74938 33.6138 7.67799 34.156 7.43867C34.2012 7.41872 34.2501 7.40842 34.2995 7.40842H34.3854C34.8892 7.17811 35.3189 6.8111 35.6253 6.34849C35.9446 5.86633 36.116 5.30135 36.1184 4.72306V4.38158C36.1184 3.21951 36.5801 2.10504 37.4018 1.28333Z" fill="black"/>
</svg>
